<?xml version="1.0" encoding="UTF-8" standalone="no"?>
<!-- Created with Inkscape (http://www.inkscape.org/) -->

<svg
   version="1.1"
   id="svg2"
   width="380"
   height="445.33334"
   viewBox="0 0 380 445.33334"
   sodipodi:docname="bear-seeklogo.eps"
   xmlns:inkscape="http://www.inkscape.org/namespaces/inkscape"
   xmlns:sodipodi="http://sodipodi.sourceforge.net/DTD/sodipodi-0.dtd"
   xmlns="http://www.w3.org/2000/svg"
   xmlns:svg="http://www.w3.org/2000/svg">
  <defs
     id="defs6" />
  <sodipodi:namedview
     id="namedview4"
     pagecolor="#ffffff"
     bordercolor="#000000"
     borderopacity="0.25"
     inkscape:showpageshadow="2"
     inkscape:pageopacity="0.0"
     inkscape:pagecheckerboard="0"
     inkscape:deskcolor="#d1d1d1" />
  <g
     id="g8"
     inkscape:groupmode="layer"
     inkscape:label="ink_ext_XXXXXX"
     transform="matrix(1.3333333,0,0,-1.3333333,0,445.33333)">
    <g
       id="g10"
       transform="scale(0.1)">
      <path
         d="m 1534.14,685.613 c 108.36,130.133 203.98,270.403 297.5,411.517 -84.04,-162.153 -177.88,-319.4 -278.73,-471.759 -44.74,-65.355 -90.33,-130.723 -144.59,-188.777 -26.07,-25.602 -35.32,-62.305 -55.47,-91.977 -20.43,-34.293 -49.09,-63.242 -83.85,-82.828 -2.96,36.887 -13.77,76.813 -50.66,93.551 -37.16,-52.332 -64.61,-111.313 -78.39,-174.07 -88.38,44.824 -155.22,120.449 -225.665,188.128 6.102,-28.296 12.758,-56.589 18.766,-84.875 C 778.02,418.664 636.02,570.273 523.426,742.133 479.055,811.93 440.59,887.281 423.766,968.91 503.547,806.199 607.273,656.258 724.125,518.137 c 29.488,-31.895 57.41,-67.114 94.664,-90.137 46.5,-17.187 93.09,-37.074 143.289,-39.75 129.152,-8.047 261.152,26.438 369.142,98.184 76.14,51.964 143.78,128.129 202.92,199.179 z m -523.25,913.857 c -38.82,-64.42 -61.476,-136.91 -86.527,-207.54 -33.746,-103.8 -66.562,-208.82 -80.984,-317.45 -1.844,-25.6 -7.949,-61.02 19.785,-75.257 58.336,-32.164 127.113,-9.985 189.976,-11.371 20.06,-2.774 33.1,15.168 43.54,29.308 38.37,56.58 57.32,123.13 86.26,184.53 32.19,-3.78 46.69,-21.81 49.45,-48.72 40.86,122.4 81.54,244.89 115.83,369.32 8.7,31.71 15.44,64.07 16.92,97.07 -43.84,6.7 -302.63,-10.31 -354.25,-19.89 z m 72.48,835.91 c 17.75,41.6 51.22,91.89 104.28,77.75 -54.27,-24.6 -99.74,-97.17 -62.96,-152.91 31.15,-68.13 54.27,-140.15 64.99,-214.38 27.09,30.87 56.12,60.28 80.52,93.46 11.56,17 26.07,36.43 20.62,58.34 -9.8,58.15 -35.5,111.77 -52.8,167.7 25.71,-54.73 54.93,-108.36 76.1,-165.11 36.05,-160.39 65.35,-322.55 84.86,-485.9 6.2,-74.05 16.55,-150.04 0.93,-223.63 -57.78,-189.24 -114.46,-378.85 -168.9,-569.01 -6.01,-20.81 -11.93,-41.686 -20.9,-61.471 -0.73,72.011 25.98,150.961 -11.27,217.891 -38.09,-86.43 -74.24,-177.49 -135.9,-249.786 -77.381,3.696 -154.756,9.883 -232.042,15.438 -13.863,-0.465 -20.613,13.312 -28.566,21.996 -55.652,72.112 -112.961,143.032 -168.344,215.402 39.567,-18.31 78.117,-38.92 117.414,-57.97 -18.589,194.15 -36.152,388.46 -63.148,581.68 -24.774,152.07 -69.703,299.9 -110.379,448.27 -6.375,45.21 -10.074,90.87 -11.93,136.46 18.219,48.61 39.946,96.04 62.41,142.92 -10.91,-50.3 -31.804,-99.3 -29.777,-151.52 1.024,-54.36 -2.402,-117.23 39.942,-158.55 19.132,88.01 75.062,163.91 148.003,215.49 -9.429,67.22 -41.875,131.83 -100.765,168.63 49.457,-4.17 84.863,-43.28 99.754,-88.11 99.281,5.83 198.574,11 297.858,16.92 z M 462.961,2566.65 C 365.613,2405.71 259.77,2246.61 197.18,2068.09 c 28.379,26.63 55.008,55.2 85.695,79.32 -37.066,-78.86 -71.918,-159.37 -89.949,-245.07 18.859,22.73 42.437,40.76 69.062,53.52 -42.711,-109.08 -63.422,-225.02 -76.824,-340.94 21.359,35.58 46.223,69.15 75.156,98.92 -45.394,-126.84 -77.84,-259.41 -80.886,-394.65 22.187,48.44 53.617,93.27 98.73,122.86 -26.348,-103.46 -56.949,-207.64 -56.851,-315.34 18.488,29.85 39.656,58.42 67.667,80.15 -22.375,-99.48 -45.394,-201.81 -29.953,-304.141 12.942,31.515 24.5,63.59 39.102,94.383 14.242,-57.879 23.391,-117.684 49.184,-171.95 C 380.5,754.703 428.293,692.398 479.055,633.793 592.109,505.75 724.219,396.383 859.375,292.664 963.742,214.73 1070.15,139.387 1181.09,71.0742 c 110.29,68.8708 213.82,149.3908 303.96,243.3208 57.68,60.257 108.25,128.207 142.65,204.484 14.78,-39.57 26.35,-80.512 30.22,-122.77 90.6,108.344 172.33,225.571 227.7,356.192 1.11,-69.242 -14.7,-137.094 -27.64,-204.668 64.16,114.996 118.79,235.824 155.4,362.472 17.56,-66.187 13.5,-135.437 4.07,-202.55 54.18,158.543 100.86,323.195 98.64,492.285 8.96,-10.73 19.69,-20.9 23.84,-34.86 18.59,-55.64 23.12,-114.45 33.39,-171.851 3.23,154.471 -0.84,309.691 -24.32,462.691 29.49,-12.85 39.84,-44.55 50.11,-72.39 11.92,-33.93 19.22,-69.33 27.82,-104.19 2.03,142.92 -10.63,285.85 -34.67,426.74 56.77,-71.28 58.71,-167.15 76.45,-252.65 24.5,160.29 -0.18,323.1 -34.94,479.97 66.65,-67.67 94.94,-162.51 106.31,-254.6 5.28,174 -31.79,348.62 -106.59,505.78 62.13,-45.3 105.58,-109.91 152.45,-169.54 3.42,84.03 -10.26,168.44 -41.6,246.55 33.55,-37.26 57.41,-81.81 81.16,-125.63 62.68,-120.74 112.97,-247.57 160.59,-374.88 56.11,-154.93 108.9,-311.35 148.37,-471.37 9.89,-41.23 19.59,-82.84 21.27,-125.37 -46.97,103.17 -88.11,209.21 -142.84,308.77 -39.75,79.51 -92.26,151.34 -142.91,224.01 33.65,-140.07 56.66,-284.84 45.1,-429.24 -18.49,58.34 -40.67,118.14 -86.33,160.95 39.1,-161.22 51.02,-327.53 54.54,-492.917 -23.02,100.487 -50.3,206.147 -122.87,283.527 46.69,-164.28 44.1,-339.367 13.13,-506.231 -14.8,94.856 -27,194.684 -80.34,277.239 12.86,-143.196 -6.37,-286.758 -35.12,-427 -4.16,59.066 -7.49,118.879 -26.82,175.367 -21.82,-133.871 -56.38,-266.61 -114.63,-389.563 11.66,92.715 32.73,186.364 17.66,280.016 C 2102.78,488 2016.43,368.184 1932.67,253.375 c 23.3,53.148 37.91,113.43 17.56,170.191 -45.84,-102.613 -128.58,-182.035 -209.84,-257.093 24.59,54.261 29.49,115.457 14.98,173.156 -39.57,-91.059 -98.46,-172.234 -164.84,-245.547 14.7,50.395 32.27,102.16 24.31,155.402 C 1487.36,147.711 1339.63,75.7813 1192.91,6.44922 949.691,141.969 715.34,296.352 507.523,482.457 494.207,452.875 486.352,421.258 475.441,390.656 434.121,267.418 374.125,149.93 294.523,46.8516 c 32.266,170.9214 70.262,341.0314 91.063,513.9024 0.832,20.898 8.504,46.59 -9.063,62.859 -37.441,41.879 -68.687,88.567 -98.636,135.895 -6.008,-57.68 -4.348,-115.914 -12.203,-173.422 -33,123.691 -41.051,252.379 -62.496,378.293 -20.243,-46.688 -21.348,-98.547 -30.512,-147.914 -39.285,97.719 -24.028,204.855 -16.629,306.725 -19.695,-55.64 -27.649,-114.44 -37.813,-172.307 -49.9215,143.287 -20.8981,298.507 6.008,443.547 -34.117,-54.36 -51.8631,-116.47 -64.8982,-178.78 -13.7735,160.48 18.2148,319.86 49.9262,476.37 -39.4809,-54.46 -63.9809,-117.59 -88.477,-179.71 5.1758,157.9 53.4375,315.98 149.949,442.26 C 104.457,1908.53 57.4961,1841.31 9.05469,1777.99 32.9219,2047.04 281.75,2370.2 462.961,2566.65 Z m 993.799,260.89 c 100.22,0.92 201.35,0.09 300.17,19.04 33.28,8.23 60.46,-19.6 74.79,-46.41 31.81,-60.64 42.06,-129.7 50.57,-196.81 -41.42,66.55 -77.47,140.79 -139.59,190.71 -63.05,11.38 -128.41,3.14 -192.29,5.09 38.46,-48.73 77.47,-109.1 142.55,-122.03 34.3,-6.57 51.31,27.92 63.79,53.15 -2.59,-31.43 -2.68,-68.32 -26.62,-91.99 -20.53,-20.52 -52.33,-7.84 -73.22,5.19 -54.08,36.61 -85.88,95.68 -118.52,150.32 -25.79,14.51 -54.64,21.99 -81.63,33.74 z M 843.379,2694.13 c -3.606,83.48 -10.356,170.39 21.074,249.89 3.332,-82.64 11.746,-165.48 34.485,-245.36 84.222,7.03 169.642,-16.91 236.942,-68.21 95.78,-68.05 167.14,-164.75 221.51,-267.82 67.94,-130.08 113.15,-271.24 141.25,-415.09 14.33,-76.26 24.4,-153.74 23.11,-231.49 -1.29,-35.03 -2.96,-72.47 -22.46,-102.98 -35.51,-56.12 -53.63,-120.36 -74.24,-182.86 -27.91,-89.67 -53.98,-180.17 -73.21,-272.16 -12.76,-87.82 -27.46,-175.554 -38.37,-263.562 1.3,-65.082 -6.29,-131.465 -33.28,-191.179 -31.15,-72.012 -91.89,-130.727 -165.1,-158.731 -80.9,-32.445 -170.199,-35.035 -255.902,-27.449 -52.973,4.059 -105.297,29.945 -135.063,74.875 -43.355,59.809 -49.828,135.894 -53.805,207.074 -25.523,122.676 -68.129,247.482 -48.812,374.042 13.496,-106.6 49.738,-209.386 105.207,-301.472 19.777,26.348 41.32,58.34 75.25,66.11 85.515,-4.809 170.933,-11.75 256.165,-20.25 8.87,-30.332 21.08,-64.906 53.07,-77.668 28.93,-11.363 72.56,-15.426 89.67,16.738 9.24,25.059 2.77,53.258 13.22,78.301 63.97,213.191 123.05,428.031 196.07,638.441 14.8,38.63 34.12,76.64 34.95,119.06 11.74,188.97 -11.92,380.24 -69.06,560.79 -44.46,136.08 -113.42,272.26 -231.3,358.87 -144.58,108.26 -378.004,95.69 -493.66,-49.54 -68.035,-85.52 -92.813,-196.54 -101.227,-303.32 -3.519,-29.86 -0.554,-63.14 -18.859,-88.93 -19.875,27.63 -32.262,59.99 -37.535,93.45 -13.031,79.42 -7.946,160.41 0.644,240 12.391,108.9 33.559,216.78 59.356,323.28 -22.746,-177.68 -63.696,-356.38 -46.504,-536.46 27.187,116.84 68.875,237.86 161.785,319.21 48.813,44.1 110.75,70.91 174.629,84.4 z m 474.531,341.77 c 35.13,9.99 70.16,21.36 106.31,26.91 150.87,7.96 304.8,-33.74 427.1,-123.42 136.27,-99.19 246.37,-228.89 375.42,-336.68 41.52,-35.41 88.11,-65.17 124.08,-106.78 76.63,-87.27 127.85,-193.21 170.27,-300.45 51.41,-129.51 85.24,-265.04 118.52,-400.11 63.98,-5.44 133.49,2.22 186.46,41.33 3.06,25.51 -9.33,48.9 -18.39,71.73 -20.8,47.34 -39.95,97.07 -41.14,149.4 -2.03,55.47 -2.96,113.99 -30.79,163.72 -13.22,-18.21 -23.47,-39 -23.94,-62.02 -5.36,-92.82 23.86,-184.17 17.11,-276.98 -1.67,-23.3 -11.65,-55 -39.85,-55.55 -29.95,-5.09 -39.48,29.02 -52.23,48.99 -83.48,167.41 -96.52,370.71 -28.02,545.62 -38.73,-23.21 -76.17,-48.45 -115.83,-69.98 45.76,48.43 93.19,96.5 148.38,134.23 35.13,25.05 91.61,21.44 117.5,-15.26 14.88,-19.97 13.5,-45.94 13.03,-69.51 -2.49,-83.58 12.48,-166.23 15.91,-249.43 3.04,-48.9 -1.95,-98.45 8.49,-146.61 9.53,-48.73 30.61,-94.03 43.55,-141.73 3.97,-15.71 8.23,-36.88 -5.92,-48.81 -66.47,-59.44 -175.27,-54.08 -243.97,-3.61 -76.91,213.19 -162.7,426.19 -291.94,613.76 -41.41,58.98 -88.46,115.18 -146.62,158.36 -79.96,61.1 -155.13,128.13 -227.69,197.84 -80.07,75.43 -160.85,154.37 -262.55,200.04 -106.87,49.74 -227.14,57.04 -343.25,55 z m -365.621,296.55 c 63.341,-0.16 126.761,-21.36 173.981,-64.22 70.53,-62.77 105.39,-155.12 123.14,-245.73 141.07,-134.78 288.15,-273.27 373.2,-452.43 113.71,-19.5 230.84,-35.5 345.66,-15.62 -60.65,-37.07 -125.08,-79.97 -153.46,-148.19 -26.72,-80.7 -0.65,-172.23 53.71,-235.56 30.41,-38.27 71.37,-65.72 111.77,-92.34 -64.35,-8.05 -132.76,5.63 -180.28,52.14 -20.24,-95.04 33.84,-186.19 103.17,-246.66 -46.87,9.71 -93.18,27 -126.55,62.87 -13.13,-55.1 -11.1,-115 17.11,-165.3 22.36,-46.31 58.6,-83.56 95.85,-118.14 -49.26,-1.39 -102.14,7.58 -135.15,47.89 0.36,-33.65 6.1,-67.31 18.86,-98.56 35.49,-88.38 95.12,-163.8 155.03,-236.74 -55.38,15.25 -104,48.8 -140.8,92.34 -24.12,-131.36 -86.71,-252.09 -160.58,-362.2 -63.41,-90.41 -132.56,-178.234 -214.38,-252.84 82.46,106.684 158.92,218.64 218.36,339.93 53.9,112.79 101.23,238.51 79.23,365.34 -58.89,202.46 -99.66,413.8 -85.98,625.4 14.8,88.38 37.35,177.68 27.09,268 -2.12,19.05 -9.72,36.7 -17.29,54.09 -5.82,-89.12 -20.8,-177.69 -43.36,-264.03 -1.93,102.9 9.16,206.81 -8.5,308.86 -3.98,27.93 -21.91,50.48 -36.7,73.41 -87.28,131.54 -186.37,256.07 -303.41,362.39 -60.46,45.58 -132.47,75.06 -191.83,121.47 -14.51,49.92 -20.71,105.2 -55.926,146.07 -34.574,-46.88 -29.777,-108.54 -37.164,-163.55 -32.266,-1.66 -64.438,-3.97 -96.516,-6.37 -9.336,46.31 -13.679,96.24 -42.523,135.53 -37.258,-47.52 -30.145,-111.95 -44.375,-167.52 -40.031,-32.07 -82,-61.75 -123.328,-92.16 -23.844,80.89 -28.098,175.09 20.437,248.02 44.324,66.13 120.754,99.15 197.102,114.33 26.488,5.26 55.144,9.92 82.125,10.08 h 2.277 v 0"
         style="fill:#050606;fill-opacity:1;fill-rule:nonzero;stroke:none"
         id="path12" />
    </g>
  </g>
</svg>
